<svg width="28" height="28" viewBox="0 0 28 28" fill="none" xmlns="http://www.w3.org/2000/svg">
<path fill-rule="evenodd" clip-rule="evenodd" d="M28 14C28 21.732 21.732 28 14 28C6.26801 28 0 21.732 0 14C0 6.26801 6.26801 0 14 0C21.732 0 28 6.26801 28 14ZM13.8145 15.3462C13.0335 16.1273 11.7671 16.1273 10.9861 15.3462L9.13716 13.4973C8.74664 13.1068 8.11347 13.1068 7.72295 13.4973C7.33242 13.8878 7.33242 14.521 7.72295 14.9115L11.6219 18.8104C11.643 18.8362 11.6656 18.8612 11.6896 18.8853C12.0802 19.2758 12.7133 19.2758 13.1039 18.8853L20.882 11.1071C21.2726 10.7166 21.2726 10.0834 20.882 9.69292C20.4915 9.30239 19.8583 9.30239 19.4678 9.69292L13.8145 15.3462Z" fill="#006CFF"/>
</svg>
